<?xml version="1.0" standalone="no"?>
<!DOCTYPE svg PUBLIC "-//W3C//DTD SVG 20010904//EN"
 "http://www.w3.org/TR/2001/REC-SVG-20010904/DTD/svg10.dtd">
<svg version="1.0" xmlns="http://www.w3.org/2000/svg"
 width="700.000000pt" height="700.000000pt" viewBox="0 0 700.000000 700.000000"
 preserveAspectRatio="xMidYMid meet">
<metadata>
Created by potrace 1.11, written by Peter Selinger 2001-2013
</metadata>
<g transform="translate(0.000000,700.000000) scale(0.100000,-0.100000)"
fill="#000000" stroke="none">
<path d="M2161 6244 c-18 -40 -12 -132 14 -229 55 -198 61 -256 40 -369 -10
-51 -66 -148 -116 -201 -64 -67 -142 -105 -326 -156 -210 -59 -279 -94 -383
-199 -73 -73 -240 -279 -240 -296 0 -3 -13 -24 -28 -47 -28 -40 -131 -229
-221 -402 -22 -44 -45 -87 -50 -95 -5 -8 -33 -55 -62 -105 -59 -102 -124 -196
-164 -240 -16 -16 -63 -67 -106 -113 -127 -134 -175 -219 -184 -326 -4 -52 -4
-54 70 -156 176 -243 294 -335 395 -307 60 16 87 35 190 132 75 71 118 103
177 132 76 36 82 37 198 39 66 1 145 -2 175 -7 83 -15 259 -19 310 -8 116 26
212 97 298 219 67 96 159 183 208 198 116 34 217 -7 281 -115 24 -42 52 -142
48 -174 -1 -8 -5 -35 -8 -60 -6 -52 -38 -126 -76 -179 -14 -19 -88 -100 -166
-178 -192 -197 -190 -195 -300 -377 -169 -281 -245 -426 -350 -670 -16 -38
-75 -193 -75 -198 0 -2 30 11 68 29 264 129 601 241 932 309 40 8 211 35 255
41 28 3 61 7 75 9 154 21 552 27 730 12 92 -8 285 -32 345 -42 166 -30 219
-41 340 -72 203 -50 442 -129 573 -189 29 -13 54 -24 57 -24 2 0 38 -16 79
-35 42 -19 79 -35 82 -35 5 0 -3 201 -11 280 -1 19 -6 69 -9 111 -4 42 -8 87
-11 100 -2 13 -6 56 -10 94 -4 39 -9 86 -11 105 -6 58 -4 394 3 570 10 227 10
631 0 710 -28 225 -59 334 -148 515 -117 238 -390 517 -724 740 -162 108 -315
185 -785 397 -125 56 -352 175 -402 209 -14 11 -29 19 -33 19 -4 0 -37 20 -74
43 -36 24 -100 66 -141 92 -41 27 -77 52 -80 55 -3 4 -27 22 -55 40 -27 19
-165 120 -305 225 -140 105 -260 194 -266 198 -6 3 -16 -5 -23 -19z m-276
-1473 c110 -49 166 -174 136 -298 -52 -210 -320 -250 -429 -64 -22 39 -26 57
-27 126 0 87 22 146 71 193 63 59 172 78 249 43z"/>
<path d="M3258 1355 c-1 -1 -48 -5 -103 -9 -55 -3 -116 -8 -135 -10 -19 -3
-59 -7 -88 -10 -68 -8 -122 -15 -148 -21 -12 -3 -39 -7 -60 -10 -52 -8 -338
-72 -389 -87 -22 -6 -42 -12 -45 -13 -93 -25 -311 -101 -429 -150 -378 -156
-744 -390 -1023 -654 l-108 -101 2773 0 2772 1 -85 80 c-343 326 -791 588
-1296 758 -140 47 -376 113 -454 126 -19 3 -43 8 -52 11 -54 16 -309 56 -443
69 -33 3 -80 8 -105 11 -48 6 -576 14 -582 9z"/>
</g>
</svg>
