<svg width="1440" height="1024" viewBox="0 0 1440 1024" fill="none" xmlns="http://www.w3.org/2000/svg">
<rect x="-30" width="1470" height="1024" fill="#34B7EB"/>
<g clip-path="url(#clip0)">
<g style="mix-blend-mode:overlay" opacity="0.34">
<path d="M348.994 873.408L338.643 903.222L382.58 926.547C387.687 929.318 389.842 930.114 393.041 937.086C396.239 944.057 393.576 952.178 387.027 955.182C380.478 958.187 372.572 954.914 369.374 947.943C367.242 943.295 367.057 939.536 365.507 936.156C361.824 928.128 338.551 918.098 333.269 920.521C329.889 922.072 325.997 935.875 326.094 936.086C322.276 944.486 318.727 960.175 324.833 973.484C333.168 991.652 337.913 993.057 356.127 1014.36C367.523 1000.19 382.466 988.735 398.522 981.369C414.674 974.215 433.017 970.141 451.197 970.751C446.926 943.046 448.944 938.539 440.609 920.371C434.504 907.061 420.069 900.134 411.44 896.933C411.035 896.607 373.436 882.653 348.994 873.408ZM408.504 1003.13C378.082 1017.08 356.699 1040.7 347.957 1065.68L496.683 997.451C472.046 987.785 438.925 989.172 408.504 1003.13Z" fill="black"/>
</g>
</g>
<g clip-path="url(#clip1)">
<g style="mix-blend-mode:overlay">
<path d="M457.549 305.6C456.698 306.398 456.087 307.292 455.635 308.516C454.189 312.431 454.837 318.219 453.481 321.89C452.487 324.582 451.099 326.855 448.391 328.914C439.754 335.736 430.344 328.087 420.201 332.962C405.366 339.998 399.965 348.571 386.854 358.469C379.403 364.338 370.828 364.239 367.484 373.293C369.257 379.788 371.128 388.259 375.661 391.046C383.002 393.757 387.111 384.148 398.858 388.487C402.773 389.933 406.076 392.263 409.747 393.619C423.696 398.77 427.04 384.435 436.584 387.96C440.989 389.587 442.463 395.41 440.746 400.06C437.312 409.359 425.922 409.333 417.194 416.399C406.429 425.216 401.616 428.441 391.235 440.738C411.529 438.499 432.483 441.238 451.082 448.107C469.591 455.221 487.401 466.519 501.369 481.411C505.643 469.084 506.811 460.614 508.98 454.74C513.047 443.728 517.76 433.235 519.748 427.851C527.521 406.805 524.644 393.514 512.702 374.642C503.038 359.393 491.215 352.242 478.832 336.823C469.707 325.388 465.824 317.833 457.549 305.6ZM428.813 347.268C432.973 348.805 434.885 353.409 433.258 357.814C431.632 362.219 427.186 364.475 423.025 362.939C418.865 361.402 416.953 356.798 418.58 352.393C420.206 347.988 424.652 345.732 428.813 347.268ZM441.774 473.313C406.533 460.299 370.817 462.126 344.073 475.054L516.365 538.682C504.443 511.475 477.014 486.328 441.774 473.313Z" fill="black" fill-opacity="0.66"/>
</g>
</g>
<g clip-path="url(#clip2)">
<g style="mix-blend-mode:overlay" opacity="0.53">
<path d="M94.8037 17.9442C86.86 15.6751 78.476 20.7638 76.0605 29.22C73.645 37.6761 78.076 46.4255 86.0197 48.6946C93.9634 50.9637 102.347 45.875 104.763 37.4188C107.178 28.9627 102.747 20.2133 94.8037 17.9442ZM147.073 32.8752C139.13 30.606 130.746 35.6947 128.33 44.1509C125.915 52.6071 130.346 61.3564 138.289 63.6256C146.233 65.8947 154.617 60.806 157.033 52.3498C159.448 43.8936 155.017 35.1443 147.073 32.8752ZM23.7855 33.6942C15.8418 31.4251 7.45791 36.5138 5.04238 44.97C2.62685 53.4262 7.05791 62.1755 15.0016 64.4447C22.9453 66.7138 31.3292 61.6251 33.7447 53.1689C36.1603 44.7127 31.7292 35.9634 23.7855 33.6942ZM199.057 83.7609C191.113 81.4918 182.729 86.5804 180.314 95.0366C177.898 103.493 182.329 112.242 190.273 114.511C198.217 116.78 206.601 111.692 209.016 103.236C211.432 94.7793 207.001 86.03 199.057 83.7609ZM86.3127 55.4238C70.0256 101.768 60.3972 111.217 54.2472 109.461C45.2785 106.899 32.0264 87.3103 23.4231 71.8264C24.2297 94.2294 24.2992 117.255 17.565 140.83L15.8777 146.736C43.3321 141.829 59.5577 140.353 85.9512 147.892C112.345 155.431 125.342 165.256 146.062 183.924L147.75 178.017C154.484 154.442 166.705 134.928 179.223 116.331C163.739 124.934 142.14 134.567 133.171 132.005C127.021 130.249 123.763 117.396 134.486 69.1847C113.915 92.6871 111.499 106.97 98.6862 103.31C87.9238 100.235 91.3661 86.246 86.3127 55.4238ZM78.7783 173.003C41.8785 162.462 5.63444 167.088 -20.6114 182.318L159.78 233.847C145.539 207.052 115.678 183.543 78.7783 173.003Z" fill="black"/>
</g>
</g>
<g style="mix-blend-mode:overlay">
<path d="M18.2769 634.972C5.23429 642.592 0.840461 659.335 8.46051 672.378L16.7372 686.544L-21.0402 708.615C-31.4762 714.712 -34.9905 728.103 -28.8933 738.539L-12.34 766.872C-9.29419 772.086 -2.59116 773.845 2.62212 770.799L5.99773 768.827C18.3509 761.61 34.7821 763.933 43.1979 775.497C52.8747 788.808 48.7786 807.173 34.9332 815.262L30.211 818.021C24.9977 821.067 23.2386 827.77 26.2844 832.983L42.8378 861.316C48.9349 871.752 62.326 875.266 72.762 869.169L101.095 852.616C106.308 849.57 108.067 842.867 105.022 837.654L103.049 834.278C95.8322 821.925 98.1555 805.494 109.72 797.078C123.03 787.401 141.395 791.497 149.484 805.343L152.243 810.065C155.289 815.278 161.992 817.037 167.205 813.991L195.538 797.438C205.974 791.341 209.489 777.95 203.392 767.514L181.321 729.736L195.487 721.46C208.53 713.84 212.924 697.097 205.303 684.054C197.683 671.012 180.941 666.618 167.898 674.238L153.732 682.515L131.661 644.737C125.563 634.301 112.172 630.787 101.736 636.884L63.9589 658.955L55.6822 644.789C48.0622 631.746 31.3196 627.352 18.2769 634.972Z" fill="black" fill-opacity="0.16"/>
</g>
<g style="mix-blend-mode:overlay">
<path d="M1130.97 408.75C1126.47 394.331 1111.14 386.294 1096.72 390.795L1081.06 395.684L1068.02 353.919C1064.42 342.382 1052.16 335.954 1040.62 339.555L1009.29 349.333C1003.53 351.132 1000.31 357.27 1002.11 363.033L1003.28 366.765C1007.54 380.422 1001.59 395.914 988.435 401.522C973.293 407.967 956.314 399.857 951.536 384.55L949.907 379.33C948.107 373.566 941.97 370.349 936.206 372.148L904.882 381.925C893.345 385.527 886.917 397.789 890.518 409.326L900.296 440.65C902.095 446.413 908.233 449.631 913.997 447.832L917.728 446.667C931.386 442.404 946.877 448.353 952.485 461.51C958.93 476.651 950.82 493.63 935.513 498.408L930.293 500.038C924.529 501.837 921.312 507.975 923.111 513.738L932.888 545.062C936.49 556.6 948.752 563.027 960.289 559.426L1002.05 546.389L1006.94 562.051C1011.44 576.47 1026.77 584.507 1041.19 580.006C1055.61 575.505 1063.65 560.174 1059.15 545.755L1054.26 530.093L1096.03 517.056C1107.56 513.455 1113.99 501.193 1110.39 489.655L1097.35 447.89L1113.01 443.001C1127.43 438.5 1135.47 423.17 1130.97 408.75Z" fill="white" fill-opacity="0.16"/>
</g>
<g style="mix-blend-mode:soft-light">
<path d="M489.258 16.5658C495.644 7.37496 508.273 5.10189 517.463 11.4887L617.312 80.8751C626.503 87.2619 628.776 99.8901 622.389 109.081C616.002 118.272 603.374 120.545 594.183 114.158L494.335 44.7716C485.144 38.3848 482.871 25.7566 489.258 16.5658Z" fill="white"/>
<path d="M602.081 -3.74243C611.272 2.64441 613.545 15.2726 607.158 24.4634L537.772 124.312C531.385 133.503 518.757 135.776 509.566 129.389C500.375 123.002 498.102 110.374 504.489 101.183L573.875 1.33462C580.262 -7.85619 592.89 -10.1293 602.081 -3.74243Z" fill="white"/>
</g>
<g style="mix-blend-mode:soft-light">
<path d="M194.039 836.876C205.228 836.617 214.508 845.478 214.767 856.667L217.581 978.224C217.84 989.414 208.98 998.694 197.791 998.953C186.601 999.212 177.321 990.352 177.062 979.162L174.248 857.605C173.989 846.416 182.85 837.135 194.039 836.876Z" fill="#B8B8B8"/>
<path d="M276.953 916.039C277.212 927.228 268.352 936.508 257.162 936.767L135.605 939.581C124.416 939.84 115.135 930.98 114.876 919.79C114.617 908.601 123.478 899.321 134.667 899.062L256.224 896.248C267.414 895.989 276.694 904.849 276.953 916.039Z" fill="#B8B8B8"/>
</g>
<g style="mix-blend-mode:soft-light">
<path d="M149.583 438.681C155.356 438.003 160.586 442.134 161.265 447.907L168.634 510.628C169.312 516.401 165.181 521.631 159.408 522.31C153.635 522.988 148.405 518.858 147.726 513.084L140.357 450.363C139.679 444.59 143.809 439.36 149.583 438.681Z" fill="black"/>
<path d="M196.31 475.583C196.988 481.356 192.858 486.586 187.084 487.265L124.363 494.634C118.59 495.312 113.36 491.182 112.681 485.408C112.003 479.635 116.133 474.405 121.907 473.727L184.628 466.358C190.401 465.679 195.631 469.81 196.31 475.583Z" fill="black"/>
</g>
<g style="mix-blend-mode:soft-light">
<path d="M377.796 643.661C381.866 645.133 383.972 649.625 382.5 653.695L366.508 697.906C365.036 701.976 360.544 704.081 356.474 702.609C352.405 701.138 350.299 696.645 351.771 692.576L367.762 648.364C369.234 644.295 373.727 642.189 377.796 643.661Z" fill="black"/>
<path d="M396.61 683.796C395.138 687.866 390.645 689.972 386.576 688.5L342.364 672.508C338.295 671.036 336.189 666.544 337.661 662.474C339.133 658.405 343.625 656.299 347.695 657.771L391.906 673.762C395.976 675.234 398.081 679.727 396.61 683.796Z" fill="black"/>
</g>
<g style="mix-blend-mode:soft-light">
<path d="M1275.35 521.468C1271.21 526.634 1263.66 527.459 1258.49 523.311L1202.36 478.245C1197.19 474.097 1196.37 466.546 1200.52 461.379C1204.67 456.213 1212.22 455.388 1217.38 459.536L1273.51 504.602C1278.68 508.75 1279.5 516.301 1275.35 521.468Z" fill="black"/>
<path d="M1207.89 528.842C1202.73 524.694 1201.9 517.143 1206.05 511.976L1251.11 455.849C1255.26 450.682 1262.81 449.857 1267.98 454.005C1273.15 458.153 1273.97 465.704 1269.82 470.871L1224.76 526.998C1220.61 532.165 1213.06 532.99 1207.89 528.842Z" fill="black"/>
</g>
<g style="mix-blend-mode:soft-light">
<path d="M1368.5 363.544C1365.71 367.017 1360.64 367.572 1357.16 364.783L1319.43 334.49C1315.96 331.701 1315.41 326.626 1318.2 323.153C1320.98 319.68 1326.06 319.125 1329.53 321.914L1367.26 352.207C1370.73 354.996 1371.29 360.071 1368.5 363.544Z" fill="#BABABA"/>
<path d="M1323.15 368.501C1319.68 365.713 1319.13 360.637 1321.91 357.164L1352.21 319.435C1355 315.962 1360.07 315.407 1363.54 318.196C1367.02 320.984 1367.57 326.06 1364.78 329.533L1334.49 367.262C1331.7 370.735 1326.63 371.29 1323.15 368.501Z" fill="#BABABA"/>
</g>
<g style="mix-blend-mode:soft-light">
<path d="M1051.15 46.1012C1064.84 42.4974 1078.86 50.6735 1082.46 64.3632L1121.61 213.087C1125.22 226.776 1117.04 240.795 1103.35 244.399C1089.66 248.003 1075.64 239.827 1072.04 226.137L1032.89 77.4138C1029.28 63.7241 1037.46 49.705 1051.15 46.1012Z" fill="black"/>
<path d="M1176.4 119.149C1180 132.839 1171.83 146.858 1158.14 150.462L1009.41 189.613C995.724 193.217 981.705 185.041 978.101 171.351C974.497 157.662 982.673 143.643 996.363 140.039L1145.09 100.887C1158.78 97.2832 1172.8 105.459 1176.4 119.149Z" fill="black"/>
</g>
<g style="mix-blend-mode:soft-light">
<path d="M831.85 415.339C857.555 424.637 870.855 453.012 861.558 478.717L760.549 757.974C751.251 783.679 722.876 796.979 697.171 787.682C671.466 778.384 658.166 750.009 667.463 724.304L768.472 445.047C777.77 419.342 806.145 406.042 831.85 415.339Z" fill="black"/>
<path d="M950.682 668.85C941.384 694.555 913.009 707.855 887.304 698.558L608.047 597.549C582.342 588.251 569.042 559.876 578.339 534.171C587.637 508.466 616.012 495.166 641.717 504.463L920.974 605.472C946.679 614.77 959.979 643.145 950.682 668.85Z" fill="black"/>
</g>
<g style="mix-blend-mode:overlay">
<path fill-rule="evenodd" clip-rule="evenodd" d="M538 655.778C507.502 655.778 482.778 680.502 482.778 711C482.778 741.498 507.502 766.222 538 766.222C568.498 766.222 593.222 741.498 593.222 711C593.222 680.502 568.498 655.778 538 655.778ZM467 711C467 671.788 498.788 640 538 640C577.212 640 609 671.788 609 711C609 750.212 577.212 782 538 782C498.788 782 467 750.212 467 711Z" fill="black"/>
</g>
<g style="mix-blend-mode:overlay">
<path fill-rule="evenodd" clip-rule="evenodd" d="M251.5 284.444C225.512 284.444 204.444 305.512 204.444 331.5C204.444 357.488 225.512 378.556 251.5 378.556C277.488 378.556 298.556 357.488 298.556 331.5C298.556 305.512 277.488 284.444 251.5 284.444ZM191 331.5C191 298.087 218.087 271 251.5 271C284.913 271 312 298.087 312 331.5C312 364.913 284.913 392 251.5 392C218.087 392 191 364.913 191 331.5Z" fill="black" fill-opacity="0.62"/>
</g>
<g style="mix-blend-mode:overlay">
<path fill-rule="evenodd" clip-rule="evenodd" d="M1126.5 634.444C1100.51 634.444 1079.44 655.512 1079.44 681.5C1079.44 707.488 1100.51 728.556 1126.5 728.556C1152.49 728.556 1173.56 707.488 1173.56 681.5C1173.56 655.512 1152.49 634.444 1126.5 634.444ZM1066 681.5C1066 648.087 1093.09 621 1126.5 621C1159.91 621 1187 648.087 1187 681.5C1187 714.913 1159.91 742 1126.5 742C1093.09 742 1066 714.913 1066 681.5Z" fill="black" fill-opacity="0.62"/>
</g>
<g style="mix-blend-mode:overlay">
<path fill-rule="evenodd" clip-rule="evenodd" d="M1311.5 -107.556C1231.39 -107.556 1166.44 -42.612 1166.44 37.5C1166.44 117.612 1231.39 182.556 1311.5 182.556C1391.61 182.556 1456.56 117.612 1456.56 37.5C1456.56 -42.612 1391.61 -107.556 1311.5 -107.556ZM1125 37.5C1125 -65.5011 1208.5 -149 1311.5 -149C1414.5 -149 1498 -65.5011 1498 37.5C1498 140.501 1414.5 224 1311.5 224C1208.5 224 1125 140.501 1125 37.5Z" fill="black" fill-opacity="0.62"/>
</g>
<g style="mix-blend-mode:overlay">
<path fill-rule="evenodd" clip-rule="evenodd" d="M204.5 649.222C186.673 649.222 172.222 663.673 172.222 681.5C172.222 699.327 186.673 713.778 204.5 713.778C222.327 713.778 236.778 699.327 236.778 681.5C236.778 663.673 222.327 649.222 204.5 649.222ZM163 681.5C163 658.58 181.58 640 204.5 640C227.42 640 246 658.58 246 681.5C246 704.42 227.42 723 204.5 723C181.58 723 163 704.42 163 681.5Z" fill="white" fill-opacity="0.62"/>
</g>
<g style="mix-blend-mode:overlay">
<path fill-rule="evenodd" clip-rule="evenodd" d="M1379.5 599.222C1361.67 599.222 1347.22 613.673 1347.22 631.5C1347.22 649.327 1361.67 663.778 1379.5 663.778C1397.33 663.778 1411.78 649.327 1411.78 631.5C1411.78 613.673 1397.33 599.222 1379.5 599.222ZM1338 631.5C1338 608.58 1356.58 590 1379.5 590C1402.42 590 1421 608.58 1421 631.5C1421 654.42 1402.42 673 1379.5 673C1356.58 673 1338 654.42 1338 631.5Z" fill="white" fill-opacity="0.62"/>
</g>
<g clip-path="url(#clip3)">
<g style="mix-blend-mode:soft-light">
<path d="M1384.67 756.903C1369.1 747.985 1353.78 770.542 1338.21 761.624C1329.14 756.422 1332.21 742.007 1322.1 736.21C1316.91 733.237 1310.21 735.935 1307.38 740.864C1305 745.014 1294.71 765.984 1303.72 795.956C1318.81 799.089 1335.33 805.115 1351.67 814.479C1368.01 823.843 1381.58 835.062 1391.91 846.495C1424.22 836.411 1436.11 818.074 1437.59 815.48C1440.42 810.552 1439.34 803.395 1434.15 800.423C1424.04 794.626 1413.17 804.577 1404.09 799.375C1388.53 790.457 1400.23 765.822 1384.67 756.903ZM1335.93 835.099C1321.15 826.793 1306.85 819.981 1294.31 815.377C1287.77 826.79 1275.92 842.058 1252.16 864.277C1273.89 866.046 1293.9 871.999 1312.58 882.701C1332.29 893.997 1350.12 910.407 1363.08 929.89C1367.61 892.518 1376.15 873.985 1380.79 865.276C1369.53 856.067 1355.23 846.158 1338.89 836.794C1337.9 836.227 1336.91 835.652 1335.93 835.099ZM1297.27 909.416C1259.92 888.012 1219.21 883.291 1186.53 892.819L1369.14 997.458C1360.84 964.447 1334.62 930.82 1297.27 909.416Z" fill="black"/>
</g>
</g>
<g style="mix-blend-mode:soft-light">
<path fill-rule="evenodd" clip-rule="evenodd" d="M1137.5 867.111C1087.03 867.111 1046.11 908.027 1046.11 958.5C1046.11 1008.97 1087.03 1049.89 1137.5 1049.89C1187.97 1049.89 1228.89 1008.97 1228.89 958.5C1228.89 908.027 1187.97 867.111 1137.5 867.111ZM1020 958.5C1020 893.607 1072.61 841 1137.5 841C1202.39 841 1255 893.607 1255 958.5C1255 1023.39 1202.39 1076 1137.5 1076C1072.61 1076 1020 1023.39 1020 958.5Z" fill="white"/>
</g>
<defs>
<clipPath id="clip0">
<rect width="206.69" height="206.69" fill="white" transform="translate(247 895.185) rotate(-24.6437)"/>
</clipPath>
<clipPath id="clip1">
<rect width="232" height="232" fill="white" transform="translate(398.373 258) rotate(20.2695)"/>
</clipPath>
<clipPath id="clip2">
<rect width="237.075" height="237.075" fill="white" transform="translate(18.1162 -43) rotate(15.9421)"/>
</clipPath>
<clipPath id="clip3">
<rect width="265.848" height="265.848" fill="white" transform="translate(1289.18 658) rotate(29.8142)"/>
</clipPath>
</defs>
</svg>
