<svg width="1440" height="1024" viewBox="0 0 1440 1024" fill="none" xmlns="http://www.w3.org/2000/svg">
<rect x="-28" width="1470" height="1024" fill="#34B7EB"/>
<g clip-path="url(#clip0)">
<g style="mix-blend-mode:overlay" opacity="0.61">
<path d="M350.994 873.408L340.643 903.222L384.58 926.547C389.687 929.318 391.843 930.114 395.041 937.086C398.239 944.057 395.576 952.178 389.027 955.182C382.478 958.187 374.573 954.914 371.374 947.943C369.242 943.295 369.057 939.536 367.507 936.156C363.824 928.128 340.551 918.098 335.269 920.521C331.889 922.072 327.997 935.875 328.094 936.086C324.276 944.486 320.727 960.175 326.833 973.484C335.168 991.652 339.913 993.057 358.127 1014.36C369.523 1000.19 384.466 988.735 400.522 981.369C416.674 974.215 435.017 970.141 453.197 970.751C448.926 943.046 450.944 938.539 442.61 920.371C436.504 907.061 422.069 900.134 413.44 896.933C413.035 896.607 375.437 882.653 350.994 873.408ZM410.504 1003.13C380.083 1017.08 358.699 1040.7 349.957 1065.68L498.683 997.451C474.046 987.785 440.925 989.172 410.504 1003.13Z" fill="black"/>
</g>
</g>
<g clip-path="url(#clip1)">
<g style="mix-blend-mode:overlay">
<path d="M663.549 202.6C662.698 203.398 662.087 204.292 661.635 205.516C660.189 209.431 660.837 215.219 659.482 218.89C658.487 221.582 657.099 223.855 654.392 225.914C645.754 232.736 636.344 225.087 626.201 229.962C611.366 236.998 605.965 245.571 592.855 255.469C585.403 261.338 576.828 261.239 573.484 270.293C575.257 276.788 577.128 285.259 581.661 288.046C589.003 290.757 593.111 281.148 604.858 285.487C608.774 286.933 612.076 289.263 615.747 290.619C629.696 295.77 633.04 281.435 642.584 284.96C646.989 286.587 648.464 292.41 646.746 297.06C643.312 306.359 631.922 306.333 623.194 313.399C612.429 322.216 607.616 325.441 597.235 337.738C617.529 335.499 638.484 338.238 657.083 345.107C675.591 352.221 693.402 363.519 707.369 378.411C711.643 366.084 712.811 357.614 714.981 351.74C719.048 340.728 723.76 330.235 725.748 324.851C733.521 303.805 730.644 290.514 718.703 271.642C709.039 256.393 697.215 249.242 684.833 233.823C675.707 222.388 671.824 214.833 663.549 202.6ZM634.813 244.268C638.973 245.805 640.885 250.409 639.259 254.814C637.632 259.219 633.186 261.475 629.026 259.939C624.865 258.402 622.953 253.798 624.58 249.393C626.207 244.988 630.653 242.732 634.813 244.268ZM647.774 370.313C612.534 357.299 576.817 359.126 550.073 372.054L722.366 435.682C710.443 408.475 683.014 383.328 647.774 370.313Z" fill="black" fill-opacity="0.66"/>
</g>
</g>
<g clip-path="url(#clip2)">
<g style="mix-blend-mode:overlay" opacity="0.28">
<path d="M116.804 15.9442C108.86 13.6751 100.476 18.7638 98.0605 27.22C95.645 35.6761 100.076 44.4255 108.02 46.6946C115.963 48.9637 124.347 43.875 126.763 35.4188C129.178 26.9627 124.747 18.2133 116.804 15.9442ZM169.073 30.8752C161.13 28.606 152.746 33.6947 150.33 42.1509C147.915 50.6071 152.346 59.3564 160.289 61.6256C168.233 63.8947 176.617 58.806 179.033 50.3498C181.448 41.8936 177.017 33.1443 169.073 30.8752ZM45.7855 31.6942C37.8418 29.4251 29.4579 34.5138 27.0424 42.97C24.6268 51.4262 29.0579 60.1755 37.0016 62.4447C44.9453 64.7138 53.3292 59.6251 55.7447 51.1689C58.1603 42.7127 53.7292 33.9634 45.7855 31.6942ZM221.057 81.7609C213.113 79.4918 204.729 84.5804 202.314 93.0366C199.898 101.493 204.329 110.242 212.273 112.511C220.217 114.78 228.601 109.692 231.016 101.236C233.432 92.7793 229.001 84.03 221.057 81.7609ZM108.313 53.4238C92.0256 99.7683 82.3972 109.217 76.2472 107.461C67.2785 104.899 54.0264 85.3103 45.4231 69.8264C46.2297 92.2294 46.2992 115.255 39.565 138.83L37.8777 144.736C65.3321 139.829 81.5577 138.353 107.951 145.892C134.345 153.431 147.342 163.256 168.062 181.924L169.75 176.017C176.484 152.442 188.705 132.928 201.223 114.331C185.739 122.934 164.14 132.567 155.171 130.005C149.021 128.249 145.763 115.396 156.486 67.1847C135.915 90.6871 133.499 104.97 120.686 101.31C109.924 98.2354 113.366 84.246 108.313 53.4238ZM100.778 171.003C63.8785 160.462 27.6344 165.088 1.38861 180.318L181.78 231.847C167.539 205.052 137.678 181.543 100.778 171.003Z" fill="black"/>
</g>
</g>
<g style="mix-blend-mode:overlay">
<path d="M20.2769 634.972C7.23429 642.592 2.84046 659.335 10.4605 672.378L18.7372 686.544L-19.0402 708.615C-29.4762 714.712 -32.9905 728.103 -26.8933 738.539L-10.34 766.872C-7.29419 772.086 -0.591161 773.845 4.62212 770.799L7.99773 768.827C20.3509 761.61 36.7821 763.933 45.1979 775.497C54.8747 788.808 50.7786 807.173 36.9332 815.262L32.211 818.021C26.9977 821.067 25.2386 827.77 28.2844 832.983L44.8378 861.316C50.9349 871.752 64.326 875.266 74.762 869.169L103.095 852.616C108.308 849.57 110.067 842.867 107.022 837.654L105.049 834.278C97.8322 821.925 100.155 805.494 111.72 797.078C125.03 787.401 143.395 791.497 151.484 805.343L154.243 810.065C157.289 815.278 163.992 817.037 169.205 813.991L197.538 797.438C207.974 791.341 211.489 777.95 205.392 767.514L183.321 729.736L197.487 721.46C210.53 713.84 214.924 697.097 207.303 684.054C199.683 671.012 182.941 666.618 169.898 674.238L155.732 682.515L133.661 644.737C127.563 634.301 114.172 630.787 103.736 636.884L65.9589 658.955L57.6822 644.789C50.0622 631.746 33.3196 627.352 20.2769 634.972Z" fill="black" fill-opacity="0.16"/>
</g>
<g style="mix-blend-mode:overlay">
<path d="M1072.97 327.75C1068.47 313.331 1053.14 305.294 1038.72 309.795L1023.06 314.684L1010.02 272.919C1006.42 261.382 994.156 254.954 982.618 258.555L951.295 268.333C945.531 270.132 942.314 276.27 944.113 282.033L945.278 285.765C949.541 299.422 943.592 314.914 930.435 320.522C915.293 326.967 898.314 318.857 893.536 303.55L891.907 298.33C890.108 292.566 883.97 289.349 878.206 291.148L846.883 300.925C835.345 304.527 828.917 316.789 832.519 328.326L842.296 359.65C844.095 365.413 850.233 368.631 855.997 366.832L859.729 365.667C873.386 361.404 888.877 367.353 894.485 380.51C900.931 395.651 892.82 412.63 877.513 417.408L872.293 419.038C866.529 420.837 863.312 426.975 865.111 432.738L874.888 464.062C878.49 475.6 890.752 482.027 902.289 478.426L944.054 465.389L948.943 481.051C953.444 495.47 968.775 503.507 983.194 499.006C997.613 494.505 1005.65 479.174 1001.15 464.755L996.26 449.093L1038.03 436.056C1049.56 432.455 1055.99 420.193 1052.39 408.655L1039.35 366.89L1055.01 362.001C1069.43 357.5 1077.47 342.17 1072.97 327.75Z" fill="white" fill-opacity="0.16"/>
</g>
<g style="mix-blend-mode:soft-light">
<path d="M491.258 16.5658C497.644 7.37496 510.273 5.10189 519.463 11.4887L619.312 80.8751C628.503 87.2619 630.776 99.8901 624.389 109.081C618.002 118.272 605.374 120.545 596.183 114.158L496.335 44.7716C487.144 38.3848 484.871 25.7566 491.258 16.5658Z" fill="white"/>
<path d="M604.081 -3.74243C613.272 2.64441 615.545 15.2726 609.158 24.4634L539.772 124.312C533.385 133.503 520.757 135.776 511.566 129.389C502.375 123.002 500.102 110.374 506.489 101.183L575.875 1.33462C582.262 -7.85619 594.89 -10.1293 604.081 -3.74243Z" fill="white"/>
</g>
<g style="mix-blend-mode:soft-light">
<path d="M196.039 836.876C207.228 836.617 216.508 845.478 216.767 856.667L219.581 978.224C219.84 989.414 210.98 998.694 199.791 998.953C188.601 999.212 179.321 990.352 179.062 979.162L176.248 857.605C175.989 846.416 184.85 837.135 196.039 836.876Z" fill="#B8B8B8"/>
<path d="M278.953 916.039C279.212 927.228 270.352 936.508 259.162 936.767L137.605 939.581C126.416 939.84 117.135 930.98 116.876 919.79C116.617 908.601 125.478 899.321 136.667 899.062L258.224 896.248C269.414 895.989 278.694 904.849 278.953 916.039Z" fill="#B8B8B8"/>
</g>
<g style="mix-blend-mode:soft-light">
<path d="M151.583 438.681C157.356 438.003 162.586 442.134 163.265 447.907L170.634 510.628C171.312 516.401 167.181 521.631 161.408 522.31C155.635 522.988 150.405 518.858 149.726 513.084L142.357 450.363C141.679 444.59 145.809 439.36 151.583 438.681Z" fill="black"/>
<path d="M198.31 475.583C198.988 481.356 194.858 486.586 189.084 487.265L126.363 494.634C120.59 495.312 115.36 491.182 114.681 485.408C114.003 479.635 118.133 474.405 123.907 473.727L186.628 466.358C192.401 465.679 197.631 469.81 198.31 475.583Z" fill="black"/>
</g>
<g style="mix-blend-mode:soft-light">
<path d="M415.796 638.661C419.866 640.133 421.972 644.625 420.5 648.695L404.508 692.906C403.036 696.976 398.544 699.081 394.474 697.609C390.405 696.138 388.299 691.645 389.771 687.576L405.762 643.364C407.234 639.295 411.727 637.189 415.796 638.661Z" fill="black"/>
<path d="M434.61 678.796C433.138 682.866 428.645 684.972 424.576 683.5L380.364 667.508C376.295 666.036 374.189 661.544 375.661 657.474C377.133 653.405 381.625 651.299 385.695 652.771L429.906 668.762C433.976 670.234 436.081 674.727 434.61 678.796Z" fill="black"/>
</g>
<g style="mix-blend-mode:soft-light">
<path d="M1263.88 474.507C1259.73 479.673 1252.18 480.499 1247.02 476.35L1190.89 431.284C1185.72 427.136 1184.9 419.585 1189.04 414.419C1193.19 409.252 1200.74 408.427 1205.91 412.575L1262.04 457.641C1267.2 461.789 1268.03 469.34 1263.88 474.507Z" fill="black"/>
<path d="M1196.42 481.881C1191.25 477.733 1190.43 470.182 1194.57 465.016L1239.64 408.888C1243.79 403.721 1251.34 402.896 1256.51 407.044C1261.67 411.192 1262.5 418.743 1258.35 423.91L1213.28 480.038C1209.14 485.204 1201.58 486.029 1196.42 481.881Z" fill="black"/>
</g>
<g style="mix-blend-mode:soft-light">
<path d="M1370.5 363.544C1367.71 367.017 1362.64 367.572 1359.16 364.783L1321.44 334.49C1317.96 331.701 1317.41 326.626 1320.2 323.153C1322.98 319.68 1328.06 319.125 1331.53 321.914L1369.26 352.207C1372.73 354.996 1373.29 360.071 1370.5 363.544Z" fill="#BABABA"/>
<path d="M1325.15 368.501C1321.68 365.713 1321.13 360.637 1323.91 357.164L1354.21 319.435C1357 315.962 1362.07 315.407 1365.54 318.196C1369.02 320.984 1369.57 326.06 1366.78 329.533L1336.49 367.262C1333.7 370.735 1328.63 371.29 1325.15 368.501Z" fill="#BABABA"/>
</g>
<g style="mix-blend-mode:soft-light">
<path d="M1053.15 46.1012C1066.84 42.4974 1080.86 50.6735 1084.46 64.3632L1123.61 213.087C1127.22 226.776 1119.04 240.795 1105.35 244.399C1091.66 248.003 1077.64 239.827 1074.04 226.137L1034.89 77.4138C1031.28 63.7241 1039.46 49.705 1053.15 46.1012Z" fill="black"/>
<path d="M1178.4 119.149C1182 132.839 1173.83 146.858 1160.14 150.462L1011.41 189.613C997.724 193.217 983.705 185.041 980.101 171.351C976.497 157.662 984.673 143.643 998.363 140.039L1147.09 100.887C1160.78 97.2832 1174.8 105.459 1178.4 119.149Z" fill="black"/>
</g>
<g style="mix-blend-mode:soft-light">
<path d="M878.85 761.339C904.555 770.637 917.855 799.012 908.558 824.717L807.549 1103.97C798.251 1129.68 769.876 1142.98 744.171 1133.68C718.466 1124.38 705.166 1096.01 714.463 1070.3L815.472 791.047C824.77 765.342 853.145 752.042 878.85 761.339Z" fill="black"/>
<path d="M997.682 1014.85C988.384 1040.55 960.009 1053.86 934.304 1044.56L655.047 943.549C629.342 934.251 616.042 905.876 625.339 880.171C634.637 854.466 663.012 841.166 688.717 850.463L967.974 951.472C993.679 960.77 1006.98 989.145 997.682 1014.85Z" fill="black"/>
</g>
<g style="mix-blend-mode:overlay">
<path fill-rule="evenodd" clip-rule="evenodd" d="M671 586.778C640.502 586.778 615.778 611.502 615.778 642C615.778 672.498 640.502 697.222 671 697.222C701.498 697.222 726.222 672.498 726.222 642C726.222 611.502 701.498 586.778 671 586.778ZM600 642C600 602.788 631.788 571 671 571C710.212 571 742 602.788 742 642C742 681.212 710.212 713 671 713C631.788 713 600 681.212 600 642Z" fill="black"/>
</g>
<g style="mix-blend-mode:overlay">
<path fill-rule="evenodd" clip-rule="evenodd" d="M409.5 361.444C383.512 361.444 362.444 382.512 362.444 408.5C362.444 434.488 383.512 455.556 409.5 455.556C435.488 455.556 456.556 434.488 456.556 408.5C456.556 382.512 435.488 361.444 409.5 361.444ZM349 408.5C349 375.087 376.087 348 409.5 348C442.913 348 470 375.087 470 408.5C470 441.913 442.913 469 409.5 469C376.087 469 349 441.913 349 408.5Z" fill="black" fill-opacity="0.62"/>
</g>
<g style="mix-blend-mode:overlay">
<path fill-rule="evenodd" clip-rule="evenodd" d="M1030.5 579.444C1004.51 579.444 983.444 600.512 983.444 626.5C983.444 652.488 1004.51 673.556 1030.5 673.556C1056.49 673.556 1077.56 652.488 1077.56 626.5C1077.56 600.512 1056.49 579.444 1030.5 579.444ZM970 626.5C970 593.087 997.087 566 1030.5 566C1063.91 566 1091 593.087 1091 626.5C1091 659.913 1063.91 687 1030.5 687C997.087 687 970 659.913 970 626.5Z" fill="black" fill-opacity="0.62"/>
</g>
<g style="mix-blend-mode:overlay">
<path fill-rule="evenodd" clip-rule="evenodd" d="M1313.5 -107.556C1233.39 -107.556 1168.44 -42.612 1168.44 37.5C1168.44 117.612 1233.39 182.556 1313.5 182.556C1393.61 182.556 1458.56 117.612 1458.56 37.5C1458.56 -42.612 1393.61 -107.556 1313.5 -107.556ZM1127 37.5C1127 -65.5011 1210.5 -149 1313.5 -149C1416.5 -149 1500 -65.5011 1500 37.5C1500 140.501 1416.5 224 1313.5 224C1210.5 224 1127 140.501 1127 37.5Z" fill="black" fill-opacity="0.62"/>
</g>
<g style="mix-blend-mode:overlay">
<path fill-rule="evenodd" clip-rule="evenodd" d="M206.5 649.222C188.673 649.222 174.222 663.673 174.222 681.5C174.222 699.327 188.673 713.778 206.5 713.778C224.327 713.778 238.778 699.327 238.778 681.5C238.778 663.673 224.327 649.222 206.5 649.222ZM165 681.5C165 658.58 183.58 640 206.5 640C229.42 640 248 658.58 248 681.5C248 704.42 229.42 723 206.5 723C183.58 723 165 704.42 165 681.5Z" fill="white" fill-opacity="0.62"/>
</g>
<g style="mix-blend-mode:overlay">
<path fill-rule="evenodd" clip-rule="evenodd" d="M1381.5 599.222C1363.67 599.222 1349.22 613.673 1349.22 631.5C1349.22 649.327 1363.67 663.778 1381.5 663.778C1399.33 663.778 1413.78 649.327 1413.78 631.5C1413.78 613.673 1399.33 599.222 1381.5 599.222ZM1340 631.5C1340 608.58 1358.58 590 1381.5 590C1404.42 590 1423 608.58 1423 631.5C1423 654.42 1404.42 673 1381.5 673C1358.58 673 1340 654.42 1340 631.5Z" fill="white" fill-opacity="0.62"/>
</g>
<g clip-path="url(#clip3)">
<path opacity="0.24" d="M1323.67 679.903C1308.1 670.985 1292.78 693.542 1277.21 684.624C1268.14 679.422 1271.21 665.007 1261.1 659.21C1255.91 656.237 1249.21 658.935 1246.38 663.864C1244 668.014 1233.71 688.984 1242.72 718.956C1257.81 722.089 1274.33 728.115 1290.67 737.479C1307.01 746.843 1320.58 758.062 1330.91 769.495C1363.22 759.411 1375.11 741.074 1376.59 738.48C1379.42 733.552 1378.34 726.395 1373.15 723.423C1363.04 717.626 1352.17 727.577 1343.09 722.375C1327.53 713.457 1339.23 688.822 1323.67 679.903ZM1274.93 758.099C1260.15 749.793 1245.85 742.981 1233.31 738.377C1226.77 749.79 1214.92 765.058 1191.16 787.277C1212.89 789.046 1232.9 794.999 1251.58 805.701C1271.29 816.997 1289.12 833.407 1302.08 852.89C1306.61 815.518 1315.15 796.985 1319.79 788.276C1308.53 779.067 1294.23 769.158 1277.89 759.794C1276.9 759.227 1275.91 758.652 1274.93 758.099ZM1236.27 832.416C1198.92 811.012 1158.21 806.291 1125.53 815.819L1308.14 920.458C1299.84 887.447 1273.62 853.82 1236.27 832.416Z" fill="black"/>
</g>
<g style="mix-blend-mode:soft-light">
<path fill-rule="evenodd" clip-rule="evenodd" d="M1159.5 906.111C1109.03 906.111 1068.11 947.027 1068.11 997.5C1068.11 1047.97 1109.03 1088.89 1159.5 1088.89C1209.97 1088.89 1250.89 1047.97 1250.89 997.5C1250.89 947.027 1209.97 906.111 1159.5 906.111ZM1042 997.5C1042 932.607 1094.61 880 1159.5 880C1224.39 880 1277 932.607 1277 997.5C1277 1062.39 1224.39 1115 1159.5 1115C1094.61 1115 1042 1062.39 1042 997.5Z" fill="white"/>
</g>
<defs>
<clipPath id="clip0">
<rect width="206.69" height="206.69" fill="white" transform="translate(249 895.185) rotate(-24.6437)"/>
</clipPath>
<clipPath id="clip1">
<rect width="232" height="232" fill="white" transform="translate(604.373 155) rotate(20.2695)"/>
</clipPath>
<clipPath id="clip2">
<rect width="237.075" height="237.075" fill="white" transform="translate(40.1162 -45) rotate(15.9421)"/>
</clipPath>
<clipPath id="clip3">
<rect width="265.848" height="265.848" fill="white" transform="translate(1228.18 581) rotate(29.8142)"/>
</clipPath>
</defs>
</svg>
