<svg width="462" height="1024" viewBox="0 0 462 1024" fill="none" xmlns="http://www.w3.org/2000/svg">
<path  d="M443.252 1023.34C449.227 1022.67 454.87 1021.68 456.198 1020.68C459.518 1018.02 461.177 1007.73 461.177 992.795C460.846 971.882 459.186 964.579 454.87 960.595C452.546 958.935 448.895 956.28 446.571 954.952C441.26 951.964 441.26 949.641 447.567 942.005C450.555 938.686 453.874 934.038 454.87 931.715C460.514 921.092 457.194 916.113 412.711 871.298C391.797 850.384 372.876 830.134 370.884 826.814C366.236 819.844 365.905 816.192 368.892 807.893C369.888 804.906 370.884 798.598 370.884 793.95C370.884 784.323 370.884 784.323 356.278 776.024C350.634 773.037 344.659 768.721 342.667 767.061C332.376 757.767 313.455 688.719 305.156 630.626C299.844 593.778 299.18 586.807 297.852 564.897C296.525 545.643 296.525 518.754 297.852 512.115C298.184 510.455 298.516 510.455 321.754 507.136C354.618 502.82 388.478 491.201 396.113 481.907C398.769 478.255 399.433 473.94 397.773 471.284C395.117 467.632 385.49 461.989 371.88 456.346C355.946 449.707 354.286 448.047 357.605 442.071C358.933 439.416 358.933 438.088 357.605 435.432C354.95 430.453 340.675 424.145 330.385 423.15C325.737 422.818 321.09 421.822 320.758 421.158C320.094 420.162 320.094 409.539 320.426 396.925C321.09 374.683 321.09 374.351 324.077 374.351C325.405 374.683 326.401 374.019 326.069 373.355C325.737 373.023 327.065 372.359 329.057 372.359C333.04 372.359 339.68 366.384 341.007 361.404C342.335 356.425 340.675 351.778 336.36 346.798C331.38 341.155 331.381 339.827 335.696 337.172C341.339 333.188 351.962 318.582 357.605 306.963C365.904 289.369 368.56 275.759 368.56 252.189C368.892 234.595 368.56 230.944 365.241 219.325C355.614 184.469 331.048 143.638 291.213 95.5035C276.939 78.2415 261.669 57.6599 260.673 54.0083C259.345 48.6969 261.005 45.3773 266.98 41.3937C269.636 39.7339 273.287 35.7504 274.615 33.0946C277.603 26.1234 277.935 11.5172 274.947 6.86971C268.308 -2.75717 236.771 -8.73251 211.542 -4.74898C188.969 -1.09742 178.346 10.5212 182.33 27.1193C183.99 34.0905 187.973 38.738 196.604 43.3854C198.928 44.7133 200.92 46.7051 200.92 48.0329C200.92 51.0206 194.944 60.9793 186.977 71.6021C172.703 90.8559 173.699 89.1961 175.359 95.8353C177.018 102.807 186.645 122.724 207.227 161.232C221.501 187.789 221.833 188.785 216.522 192.436C210.878 195.756 204.239 185.797 178.014 134.675C170.711 120.4 163.74 108.45 162.744 107.786C159.756 106.126 161.084 104.466 138.179 137.331C115.274 170.195 100.003 204.055 95.6878 231.94C93.6961 245.55 95.0239 270.115 98.3435 284.058C102.991 302.979 114.61 324.557 125.564 335.18C131.208 340.491 131.54 342.483 127.888 344.474C124.236 346.466 121.249 352.774 121.249 358.417C121.249 365.056 127.888 371.695 135.191 373.023C138.179 373.687 141.167 374.683 141.83 375.015C142.494 375.679 143.158 385.306 143.158 399.248V422.154L132.535 423.15C120.917 424.145 110.626 428.461 105.315 434.104C101.995 437.424 101.995 437.756 104.319 441.739C108.634 449.042 107.97 449.374 89.3806 456.677C65.8113 465.64 58.84 473.94 67.139 482.903C76.434 492.862 108.302 502.82 145.814 507.8L163.076 509.791L163.74 516.431C164.404 520.082 164.072 534.025 163.74 547.635C160.088 625.646 136.851 738.513 119.257 764.406C116.933 767.393 111.954 771.377 104.651 775.36C98.6754 778.68 92.3682 782.664 91.0404 784.323C88.0527 787.643 88.0527 799.926 91.0404 807.229C94.36 815.196 94.028 819.844 88.3846 828.143C85.7289 832.126 69.1309 850.052 51.2049 867.646C9.70972 908.809 6.0582 913.125 4.39838 919.764C2.07468 927.399 3.73441 931.715 11.0376 940.677C14.6891 944.993 17.6768 949.309 17.6768 950.305C17.6768 951.632 14.6892 954.288 10.7057 956.944C1.07877 962.919 0.414856 965.575 0.414856 990.14C0.414856 1012.38 1.74268 1019.68 6.05817 1022.01C8.38193 1023.34 52.8647 1023.67 220.837 1024C337.356 1024 437.276 1023.67 443.252 1023.34Z" fill="white"/>
</svg>
